<svg width="1440" height="258" viewBox="0 0 1440 258" fill="none" xmlns="http://www.w3.org/2000/svg">
<path d="M0 161.458L24 140.158C48 118.458 96 76.4581 144 60.1581C192 44.4581 240 54.4581 288 70.7581C336 86.4581 384 108.458 432 124.158C480 140.458 528 150.458 576 118.758C624 86.4581 672 12.4581 720 1.45811C768 -9.54189 816 44.4581 864 70.7581C912 97.4581 960 97.4581 1008 81.4581C1056 65.4581 1104 33.4581 1152 54.7581C1200 76.4581 1248 150.458 1296 172.158C1344 193.458 1392 161.458 1416 145.458L1440 129.458V257.458H1416C1392 257.458 1344 257.458 1296 257.458C1248 257.458 1200 257.458 1152 257.458C1104 257.458 1056 257.458 1008 257.458C960 257.458 912 257.458 864 257.458C816 257.458 768 257.458 720 257.458C672 257.458 624 257.458 576 257.458C528 257.458 480 257.458 432 257.458C384 257.458 336 257.458 288 257.458C240 257.458 192 257.458 144 257.458C96 257.458 48 257.458 24 257.458H0V161.458Z" fill="#00c4ff"/>
</svg>
