<svg width="1937" height="10310" viewBox="0 0 1937 10310" fill="none" xmlns="http://www.w3.org/2000/svg">
<path d="M1158.05 6863.96C1186.26 6780.78 1242.33 6748.28 1326.25 6766.44C1410.18 6784.6 1490.93 6820.68 1568.51 6874.68C1646.1 6928.67 1683.14 7004.74 1679.65 7102.89C1676.17 7201.03 1638.93 7277.88 1567.94 7333.44C1496.95 7389.01 1420.57 7434.75 1338.8 7470.67C1257.03 7506.59 1171.13 7505.38 1081.1 7467.04C991.075 7428.69 933.575 7362.56 908.601 7268.62C883.626 7174.68 911.905 7104.55 993.437 7058.21C1074.97 7011.88 1129.84 6947.13 1158.05 6863.96Z" fill="#444CF7"/>
<path d="M946.338 2670.07C976.005 2752.74 952.338 2813.07 875.338 2851.07C798.338 2889.07 712.672 2911.07 618.338 2917.07C524.005 2923.07 447.672 2886.57 389.338 2807.57C331.005 2728.57 312.338 2645.24 333.338 2557.57C354.338 2469.9 385.672 2386.57 427.338 2307.57C469.005 2228.57 537.005 2176.07 631.338 2150.07C725.672 2124.07 811.838 2140.07 889.838 2198.07C967.838 2256.07 989.338 2328.57 954.338 2415.57C919.338 2502.57 916.672 2587.4 946.338 2670.07Z" fill="#444CF7"/>
<path d="M1313.12 1765.19C1233.09 1809.96 1167.45 1794.07 1116.22 1717.51C1064.98 1640.96 1042.52 1571.27 1048.83 1508.46C1055.14 1445.64 1035.49 1367.67 989.88 1274.54C944.267 1181.42 962.38 1099.69 1044.22 1029.37C1126.06 959.044 1214.79 947.326 1310.43 994.211C1406.07 1041.1 1457.66 1108.5 1465.2 1196.44C1472.75 1284.37 1518.55 1369.03 1602.59 1450.43C1686.63 1531.83 1679.41 1593.45 1580.91 1635.28C1482.42 1677.11 1393.16 1720.41 1313.12 1765.19Z" fill="#444CF7"/>
<path d="M870.122 9339.19C790.089 9383.96 724.454 9368.07 673.217 9291.51C621.981 9214.96 599.519 9145.27 605.831 9082.46C612.143 9019.64 592.493 8941.67 546.88 8848.54C501.267 8755.42 519.38 8673.69 601.219 8603.37C683.057 8533.04 771.794 8521.33 867.43 8568.21C963.066 8615.1 1014.66 8682.5 1022.2 8770.44C1029.75 8858.37 1075.55 8943.03 1159.59 9024.43C1243.63 9105.83 1236.41 9167.45 1137.91 9209.28C1039.42 9251.11 950.155 9294.41 870.122 9339.19Z" fill="#444CF7"/>
<path d="M1127.45 2252.27C1116.73 2200.6 1090.53 2130.34 1048.87 2041.47C1007.2 1952.6 1029 1890.79 1114.27 1856.05C1199.54 1821.3 1277.99 1821.06 1349.64 1855.32C1421.28 1889.59 1478.79 1931.61 1522.15 1981.39C1565.52 2031.17 1608.39 2094.97 1650.77 2172.78C1693.16 2250.6 1678.44 2314.95 1606.62 2365.85C1534.81 2416.75 1463.36 2443.13 1392.26 2444.99C1321.17 2446.85 1261.94 2428.11 1214.58 2388.77C1167.22 2349.43 1138.18 2303.93 1127.45 2252.27Z" fill="#444CF7"/>
<path d="M842.68 7587.35C875.797 7628.43 931.168 7679 1008.79 7739.07C1086.42 7799.14 1095.22 7864.09 1035.2 7933.91C975.178 8003.73 905.475 8039.74 826.09 8041.94C746.704 8044.15 676.36 8032.99 615.057 8008.48C553.754 7983.97 486.494 7946.77 413.277 7896.86C340.06 7846.96 323.79 7782.98 364.468 7704.92C405.147 7626.86 456.693 7570.78 519.107 7536.69C581.521 7502.59 642.774 7492.25 702.866 7505.64C762.958 7519.04 809.562 7546.27 842.68 7587.35Z" fill="#444CF7"/>
<path d="M1665.85 3358.82C1630.4 3452.38 1563.71 3489.85 1465.76 3471.22C1367.81 3452.6 1278.51 3428.85 1197.85 3399.98C1117.19 3371.1 1078.51 3314.56 1081.81 3230.37C1085.11 3146.18 1072.9 3053.29 1045.17 2951.7C1017.45 2850.1 1056.95 2807.14 1163.68 2822.79C1270.41 2838.45 1359.37 2839.16 1430.57 2824.93C1501.76 2810.7 1579.03 2826.42 1662.36 2872.08C1745.69 2917.75 1775.96 2986.9 1753.18 3079.53C1730.4 3172.17 1701.29 3265.26 1665.85 3358.82Z" fill="#444CF7"/>
<path d="M699.122 3206.66C802.587 3190.82 870.91 3232.57 904.092 3331.91C937.273 3431.26 970.594 3505.11 1004.05 3553.47C1037.51 3601.82 1048.45 3658.94 1036.86 3724.81C1025.27 3790.69 988.12 3834.16 925.398 3855.23C862.676 3876.29 792.115 3899.5 713.716 3924.86C635.317 3950.22 568.555 3929.66 513.431 3863.17C458.306 3796.68 441.245 3724.39 462.246 3646.31C483.247 3568.24 502.111 3479.4 518.836 3379.81C535.562 3280.23 595.657 3222.51 699.122 3206.66Z" fill="#444CF7"/>
<path d="M1296.75 5317.94C1219.24 5350.48 1141.26 5375.6 1062.81 5393.29C984.365 5410.97 922.973 5386.49 878.638 5319.83C834.303 5253.17 810.063 5186.53 805.918 5119.91C801.773 5053.29 794.156 4966.26 783.068 4858.82C771.981 4751.39 818.379 4691.86 922.264 4680.23C1026.15 4668.6 1106.72 4696.63 1163.99 4764.32C1221.25 4832.01 1285.97 4888.99 1358.13 4935.27C1430.29 4981.56 1457.48 5048.77 1439.7 5136.92C1421.91 5225.06 1374.26 5285.4 1296.75 5317.94Z" fill="#444CF7"/>
<path d="M1552.86 4312.74C1508.19 4376.74 1458.03 4435.41 1402.36 4488.74C1346.69 4542.08 1271.19 4574.74 1175.86 4586.74C1080.53 4598.74 1007.36 4562.91 956.36 4479.24C905.36 4395.58 902.694 4316.41 948.36 4241.74C994.027 4167.08 1024.03 4087.58 1038.36 4003.24C1052.69 3918.91 1104.19 3868.24 1192.86 3851.24C1281.53 3834.24 1352.86 3858.58 1406.86 3924.24C1460.86 3989.91 1509.86 4055.08 1553.86 4119.74C1597.86 4184.41 1597.53 4248.74 1552.86 4312.74Z" fill="#444CF7"/>
<path d="M986.243 5813.08C954.243 5891.08 900.909 5941.75 826.243 5965.08C751.576 5988.41 682.409 5988.91 618.743 5966.58C555.076 5944.25 509.076 5907.08 480.743 5855.08C452.409 5803.08 429.076 5746.75 410.743 5686.08C392.409 5625.41 402.909 5565.91 442.243 5507.58C481.576 5449.25 537.243 5412.41 609.243 5397.08C681.243 5381.75 746.243 5395.41 804.243 5438.08C862.243 5480.75 915.076 5534.41 962.743 5599.08C1010.41 5663.75 1018.24 5735.08 986.243 5813.08Z" fill="#444CF7"/>
<path d="M1605.24 8563.08C1573.24 8641.08 1519.91 8691.75 1445.24 8715.08C1370.58 8738.41 1301.41 8738.91 1237.74 8716.58C1174.08 8694.25 1128.08 8657.08 1099.74 8605.08C1071.41 8553.08 1048.08 8496.75 1029.74 8436.08C1011.41 8375.41 1021.91 8315.91 1061.24 8257.58C1100.58 8199.25 1156.24 8162.41 1228.24 8147.08C1300.24 8131.75 1365.24 8145.41 1423.24 8188.08C1481.24 8230.75 1534.08 8284.41 1581.74 8349.08C1629.41 8413.75 1637.24 8485.08 1605.24 8563.08Z" fill="#444CF7"/>
<path d="M535.547 4719.75C432.204 4684.46 352.339 4648.23 295.952 4611.06C239.566 4573.88 199.446 4525.95 175.592 4467.27C151.738 4408.58 136.021 4340.2 128.439 4262.11C120.857 4184.03 151.34 4120.09 219.888 4070.3C288.435 4020.52 355.552 4019.92 421.238 4068.52C486.924 4117.11 546.149 4158.2 598.913 4191.79C651.677 4225.37 701.403 4281.3 748.093 4359.57C794.782 4437.84 796.866 4526.26 754.344 4624.83C711.822 4723.4 638.889 4755.04 535.547 4719.75Z" fill="#444CF7"/>
<path d="M875.233 1289.16C891.97 1375.17 859.763 1446.34 778.609 1502.66C697.456 1558.98 629.917 1542.2 575.994 1452.31C522.07 1362.43 481.875 1293.45 455.409 1245.38C428.943 1197.31 411.874 1142.12 404.201 1079.82C396.529 1017.51 420.412 971.182 475.85 940.822C531.287 910.461 600.169 858.101 682.495 783.741C764.821 709.382 815.758 726.57 835.306 835.305C854.854 944.041 862.211 1025.36 857.377 1079.27C852.543 1133.18 858.495 1203.14 875.233 1289.16Z" fill="#444CF7"/>
<path d="M870.363 6890.21C816.345 6932.96 756.691 6955.23 691.402 6957.02C626.113 6958.8 565.998 6941.57 511.059 6905.32C456.12 6869.07 402.337 6816.27 349.709 6746.92C297.081 6677.57 291.769 6601.78 333.773 6519.54C375.777 6437.31 439.318 6386.64 524.395 6367.51C609.472 6348.39 695.475 6343.13 782.403 6351.73C869.33 6360.34 915.724 6408.16 921.583 6495.2C927.441 6582.25 933.874 6659.15 940.88 6725.92C947.886 6792.69 924.38 6847.45 870.363 6890.21Z" fill="#444CF7"/>
<path d="M869.336 627.035C818.474 585.081 754.959 538.188 678.791 486.356C602.623 434.525 579.559 363.623 609.599 273.651C639.638 183.678 697.055 126.011 781.848 100.65C866.641 75.2881 950.734 59.5808 1034.13 53.5277C1117.52 47.4745 1166.79 86.0394 1181.94 169.222C1197.08 252.405 1233.3 329.651 1290.57 400.959C1347.85 472.268 1343.07 537.511 1276.23 596.689C1209.38 655.867 1137.57 686.208 1060.8 687.712C984.019 689.216 920.199 668.99 869.336 627.035Z" fill="#444CF7"/>
<path d="M1500.72 6221.14C1475.8 6279.79 1429.06 6313.68 1360.51 6322.8C1291.96 6331.93 1207.1 6331.09 1105.95 6320.3C1004.79 6309.5 957.157 6254.02 963.055 6153.85C968.952 6053.69 1003.4 5979.27 1066.39 5930.59C1129.38 5881.92 1184.83 5814.53 1232.76 5728.44C1280.69 5642.34 1358.16 5605.53 1465.16 5618C1572.17 5630.47 1611.03 5695.07 1581.76 5811.8C1552.49 5928.54 1537.89 6011.29 1537.97 6060.04C1538.06 6108.79 1525.64 6162.5 1500.72 6221.14Z" fill="#444CF7"/>
<path d="M1703.72 9553.14C1678.8 9611.79 1632.06 9645.68 1563.51 9654.8C1494.96 9663.93 1410.1 9663.09 1308.95 9652.3C1207.79 9641.5 1160.16 9586.02 1166.05 9485.85C1171.95 9385.69 1206.4 9311.27 1269.39 9262.59C1332.38 9213.92 1387.83 9146.53 1435.76 9060.44C1483.69 8974.34 1561.16 8937.53 1668.16 8950C1775.17 8962.47 1814.03 9027.07 1784.76 9143.8C1755.49 9260.54 1740.89 9343.29 1740.97 9392.04C1741.06 9440.79 1728.64 9494.5 1703.72 9553.14Z" fill="#444CF7"/>
<path d="M1101.23 10038.2C1117.97 10124.2 1085.76 10195.3 1004.61 10251.7C923.456 10308 855.917 10291.2 801.994 10201.3C748.07 10111.4 707.875 10042.4 681.409 9994.38C654.943 9946.31 637.874 9891.12 630.201 9828.82C622.529 9766.51 646.412 9720.18 701.85 9689.82C757.287 9659.46 826.169 9607.1 908.495 9532.74C990.821 9458.38 1041.76 9475.57 1061.31 9584.31C1080.85 9693.04 1088.21 9774.36 1083.38 9828.27C1078.54 9882.18 1084.49 9952.14 1101.23 10038.2Z" fill="#444CF7"/>
</svg>
